<svg id="svg" fill="#000000" stroke="#000000" width="200px" height="200px" version="1.1" viewBox="144 144 512 512" xmlns="http://www.w3.org/2000/svg">
    <g id="IconSvg_bgCarrier" stroke-width="0"></g>
    <g id="IconSvg_tracerCarrier" stroke-linecap="round" stroke-linejoin="round" stroke="#CCCCCC"></g>
     <g id="IconSvg_iconCarrier">
      <g xmlns="http://www.w3.org/2000/svg">
  <path d="m315.67 471.68c-10.773-9.6445-21.551-19.285-32.324-28.93-17.172-15.352-34.293-30.75-51.465-46.102-3.9375-3.4922-7.8711-7.0352-11.758-10.527v27.848c10.773-9.6445 21.551-19.285 32.324-28.93 17.172-15.352 34.293-30.75 51.465-46.102 3.9375-3.4922 7.8711-7.0352 11.758-10.527 7.6758-6.8867 7.5273-20.91 0-27.848-8.2148-7.5273-19.633-7.332-27.848 0-10.773 9.6445-21.551 19.285-32.324 28.93-17.172 15.352-34.293 30.75-51.465 46.102-3.9375 3.4922-7.8711 7.0352-11.758 10.527-7.625 6.8398-7.625 21.008 0 27.848 10.773 9.6445 21.551 19.285 32.324 28.93 17.172 15.352 34.293 30.75 51.465 46.102 3.9375 3.4922 7.8711 7.0352 11.758 10.527 3.8867 3.4922 8.5625 5.7578 13.922 5.7578 4.8203 0 10.578-2.1641 13.922-5.7578 3.4453-3.7383 6.0039-8.6602 5.7578-13.922-0.24219-5.0703-1.8672-10.48-5.7539-13.926z"></path>
  <path d="m484.33 328.31c10.773 9.6445 21.551 19.285 32.324 28.93 17.172 15.352 34.293 30.75 51.465 46.102 3.9375 3.4922 7.8711 7.0352 11.758 10.527v-27.848c-10.773 9.6445-21.551 19.285-32.324 28.93-17.172 15.352-34.293 30.75-51.465 46.102-3.9375 3.4922-7.8711 7.0352-11.758 10.527-7.6758 6.8867-7.5273 20.91 0 27.848 8.2148 7.5273 19.633 7.332 27.848 0 10.773-9.6445 21.551-19.285 32.324-28.93 17.172-15.352 34.293-30.75 51.465-46.102 3.9375-3.4922 7.8711-7.0352 11.758-10.527 7.625-6.8398 7.625-21.008 0-27.848-10.773-9.6445-21.551-19.285-32.324-28.93-17.172-15.352-34.293-30.75-51.465-46.102-3.9375-3.4922-7.8711-7.0352-11.758-10.527-3.8867-3.4922-8.5625-5.7578-13.922-5.7578-4.8203 0-10.578 2.1641-13.922 5.7578-3.4453 3.7383-6.0039 8.6602-5.7578 13.922 0.24219 5.0703 1.8672 10.484 5.7539 13.926z"></path>
  <path d="m374.91 538.7c2.9531-8.8555 5.8555-17.711 8.8086-26.617 7.0352-21.305 14.07-42.559 21.105-63.863 8.4609-25.684 16.926-51.316 25.438-77 7.332-22.188 14.66-44.379 21.992-66.566 3.5898-10.824 7.3789-21.551 10.727-32.422 0.050782-0.14844 0.097657-0.29687 0.14844-0.44141 3.2461-9.7891-3.7383-21.941-13.727-24.207-10.824-2.4609-20.762 3.2461-24.207 13.727-2.9531 8.8555-5.8555 17.711-8.8086 26.617-7.0352 21.305-14.07 42.559-21.105 63.863-8.4609 25.684-16.926 51.316-25.438 77-7.332 22.188-14.66 44.379-21.992 66.566-3.5898 10.824-7.3789 21.551-10.727 32.422-0.050782 0.14844-0.097656 0.29687-0.14844 0.44141-3.2461 9.7891 3.7383 21.941 13.727 24.207 10.824 2.457 20.762-3.25 24.207-13.727z"></path>
 </g>

      </g>
      </svg>